<svg width="48" height="48" viewBox="0 0 48 48" fill="none" xmlns="http://www.w3.org/2000/svg">
<rect width="48" height="48" rx="12" fill="#8E2424" fill-opacity="0.05"/>
<path fill-rule="evenodd" clip-rule="evenodd" d="M22.8488 8.01676C20.8238 8.21412 19.1878 8.62223 17.5941 9.32754C16.422 9.84625 15.0172 10.6612 14.6843 11.0155C14.3531 11.3681 14.5707 11.9446 15.064 12.0216C15.2521 12.0509 15.3673 11.9986 15.9677 11.6109C16.7739 11.0903 18.0245 10.4629 18.9078 10.1358C19.5388 9.90205 21.0948 9.48187 21.329 9.48187C21.4533 9.48187 21.4535 9.48512 21.3411 9.65389C20.3279 11.1745 19.6163 13.0556 19.0369 15.7446L18.9342 16.2211L18.5157 16.3243C17.6004 16.5502 16.9067 17.2048 16.6019 18.1301C16.5683 18.2324 16.3644 18.2396 13.4987 18.2396C11.8118 18.2396 10.4315 18.2216 10.4315 18.1996C10.4315 18.0877 11.156 16.6976 11.4701 16.2066C11.9186 15.5058 11.9493 15.2626 11.6254 14.9733C11.446 14.813 11.3784 14.7898 11.1709 14.8176C10.8492 14.8608 10.8009 14.9075 10.3906 15.5707C7.08934 20.9076 7.21639 27.7135 10.7146 32.9281L10.9807 33.3247L10.7967 33.6814C10.5428 34.1737 10.4487 34.7625 10.5393 35.2913C10.8415 37.0558 12.7407 38.0181 14.3167 37.2054L14.6707 37.0228L15.2254 37.3822C17.7683 39.0301 20.4448 39.8765 23.4689 39.989C29.0505 40.1966 34.3151 37.4549 37.4333 32.7167C39.2035 30.027 40.1215 26.7154 40.0003 23.4576C39.8879 20.4334 39.0415 17.7569 37.3935 15.2141L37.0341 14.6594L37.2167 14.3054C37.4693 13.8156 37.5633 13.226 37.4728 12.698C37.1703 10.932 35.2714 9.97124 33.6927 10.7854L33.3361 10.9694L32.9394 10.7033C30.9487 9.36777 28.7115 8.50895 26.258 8.13824C25.6349 8.0441 23.3892 7.96409 22.8488 8.01676ZM24.5536 9.38584C25.9261 10.0248 27.2983 13.1276 27.9436 17.0511C28.0144 17.4811 28.0876 17.9248 28.1064 18.0369L28.1406 18.2407L24.9098 18.2245L21.6789 18.2083L21.5646 17.9072C21.3517 17.3463 20.9567 16.9236 20.1965 16.4435C20.1597 16.4203 20.3567 15.5117 20.6074 14.5488C21.4321 11.3802 22.805 9.2329 24.006 9.2329C24.1264 9.2329 24.3729 9.30171 24.5536 9.38584ZM27.6442 9.69299C28.1031 9.80909 28.7602 10.0083 29.1043 10.1358C30.531 10.6641 32.5708 11.809 32.4836 12.0326C32.332 12.4216 32.2511 12.9292 32.282 13.2978C32.4343 15.1188 34.2244 16.1969 35.9673 15.5174C36.0513 15.4846 36.1526 15.5953 36.4355 16.0288C36.7772 16.5523 37.5805 18.0643 37.5805 18.1839C37.5805 18.2159 35.8393 18.2396 33.4952 18.2396H29.4098L29.2387 17.1918C28.7405 14.1402 27.914 11.5934 26.9193 10.0449C26.7757 9.82123 26.6368 9.6031 26.6108 9.56006C26.5363 9.43714 26.7327 9.46241 27.6442 9.69299ZM35.5237 11.9086C36.5439 12.4416 36.4845 13.8841 35.4224 14.3692C34.5121 14.785 33.4314 13.996 33.5284 12.9865C33.5944 12.3 34.21 11.7339 34.8906 11.7339C35.0959 11.7339 35.2937 11.7885 35.5237 11.9086ZM12.5834 12.8223C12.3494 13.0563 12.3146 13.258 12.4599 13.5389C12.6752 13.9552 13.3174 13.9552 13.5327 13.5389C13.6987 13.2178 13.5976 12.8527 13.3 12.6988C13.0191 12.5535 12.8175 12.5883 12.5834 12.8223ZM19.7329 17.6474C20.3872 17.9734 20.679 18.7552 20.3859 19.3969C19.8984 20.4641 18.4603 20.5183 17.9198 19.4898C17.7679 19.2007 17.7434 19.0907 17.7643 18.7918C17.834 17.794 18.8462 17.2056 19.7329 17.6474ZM16.6019 19.6002C16.8281 20.287 17.3548 20.9137 17.9504 21.2047L18.3066 21.3787L18.2708 23.1089C18.2388 24.6563 18.2834 26.1343 18.417 27.9513L18.4572 28.4987H14.199H9.9408L9.87499 28.2954C9.73818 27.8727 9.49584 26.7789 9.38937 26.1035C9.30674 25.5788 9.27934 25.0397 9.28059 23.9634C9.28265 22.2542 9.40426 21.3627 9.84603 19.8191L9.93998 19.4907H13.2529C16.3527 19.4907 16.5682 19.4978 16.6019 19.6002ZM28.2891 19.5689C28.4186 19.9681 28.5489 23.9922 28.4813 25.5045L28.4348 26.5451L28.2283 26.5787C27.8494 26.6401 27.3287 26.9472 26.9757 27.3172C26.6639 27.644 26.3228 28.2192 26.3212 28.4205C26.3203 28.5349 19.7601 28.5349 19.723 28.4205C19.5936 28.0217 19.4631 23.9976 19.5306 22.488L19.577 21.4504L19.8823 21.3721C20.2679 21.2733 20.8557 20.8962 21.1186 20.579C21.3004 20.3596 21.556 19.8902 21.6515 19.6002C21.6852 19.4978 21.8995 19.4907 24.9756 19.4907C27.5508 19.4907 28.2692 19.5077 28.2891 19.5689ZM38.1371 19.694C38.2747 20.1191 38.5164 21.2119 38.6219 21.8859C38.7771 22.8773 38.7775 25.0696 38.6228 26.059C38.5076 26.795 38.337 27.5861 38.1674 28.1702L38.0721 28.4987H34.7438H31.4154L31.2362 28.0874C31.0091 27.566 30.5618 27.0747 30.0805 26.8182L29.7052 26.6183L29.7412 24.8842C29.7732 23.3329 29.7288 21.8566 29.5951 20.0381L29.5549 19.4907H33.8131H38.0713L38.1371 19.694ZM29.4523 27.92C29.6746 28.0327 29.8565 28.1856 29.9797 28.3633C30.1496 28.6084 30.1677 28.6818 30.1677 29.1242C30.1677 29.5667 30.1496 29.64 29.9797 29.8851C29.7598 30.2023 29.231 30.5006 28.8898 30.5001C28.099 30.4989 27.4847 29.8973 27.4847 29.1242C27.4847 28.0884 28.5267 27.4506 29.4523 27.92ZM18.7733 30.7976C19.2814 33.9098 20.1113 36.4364 21.1518 38.0383C21.3872 38.4007 21.4177 38.4794 21.3287 38.4942C21.1598 38.5225 19.5983 38.1093 18.9078 37.8536C17.481 37.3253 15.4413 36.1803 15.5284 35.9567C15.6801 35.5678 15.7609 35.0602 15.7301 34.6916C15.5777 32.8706 13.7877 31.7925 12.0447 32.472C11.9608 32.5048 11.8595 32.3941 11.5766 31.9606C11.2349 31.4371 10.4315 29.925 10.4315 29.8054C10.4315 29.7735 12.1728 29.7498 14.5169 29.7498H18.6023L18.7733 30.7976ZM26.3212 29.828C26.3215 29.871 26.3909 30.0545 26.4753 30.2359C26.665 30.6434 27.1695 31.1863 27.5421 31.384C27.696 31.4656 27.8219 31.5646 27.8219 31.604C27.8219 31.7483 27.4418 33.3443 27.253 33.9928C26.5496 36.4088 25.5318 38.1481 24.5557 38.6025C24.1389 38.7966 23.8737 38.7968 23.4585 38.6035C22.0844 37.9638 20.7639 34.9799 20.0664 30.9383C19.9625 30.3362 19.8775 29.8225 19.8774 29.7967C19.8774 29.7708 21.3271 29.7498 23.099 29.7498C25.6342 29.7498 26.3207 29.7664 26.3212 29.828ZM37.5805 29.7906C37.5805 29.8743 36.8402 31.3006 36.5783 31.7216C35.4137 33.5933 33.6047 35.4024 31.7329 36.5669C31.0771 36.975 29.9338 37.5341 29.164 37.8235C28.4815 38.0799 26.9327 38.5075 26.686 38.5075C26.5585 38.5075 26.5583 38.5047 26.671 38.3355C27.6748 36.8289 28.4172 34.8677 28.976 32.246L29.0773 31.7709L29.4661 31.6628C30.3033 31.43 30.9062 30.9184 31.2362 30.161L31.4154 29.7498H34.498C36.1934 29.7498 37.5805 29.7682 37.5805 29.7906ZM13.7545 33.6779C14.8015 34.2248 14.6971 35.7424 13.5832 36.1678C12.6906 36.5087 11.692 35.7633 11.759 34.8059C11.8096 34.0813 12.4143 33.5031 13.1214 33.5031C13.3267 33.5031 13.5245 33.5577 13.7545 33.6779Z" fill="#8E2424"/>
</svg>
